<svg xmlns="http://www.w3.org/2000/svg" width="100%" viewBox="0 0 680 442" role="img" font-family="-apple-system,Segoe UI,Roboto,Helvetica,Arial,sans-serif">
<title>Arquitectura del portafolio: microfrontends y microservicios</title>
<desc>Usuario, Cloudflare Tunnel, microfrontends Single SPA, microservicios NestJS, bases de datos y CI/CD.</desc>
<defs>
<marker id="ah" markerWidth="10" markerHeight="10" refX="7" refY="3" orient="auto"><path d="M0,0 L7,3 L0,6 Z" fill="#94A3B8"/></marker>
<style>.h{font-size:14px;font-weight:600}.lbl{font-size:13px;font-weight:600}.sub{font-size:11px;fill:#64748B}.chip{font-size:11px;font-weight:500}.ph{font-size:13px;font-weight:600;fill:#475569}</style>
</defs>

<rect x="250" y="28" width="180" height="42" rx="8" fill="#EEF0F2" stroke="#9AA3AD"/>
<text class="h" x="340" y="54" text-anchor="middle" fill="#495057">Usuario / Navegador</text>
<line x1="340" y1="70" x2="340" y2="91" stroke="#94A3B8" stroke-width="2" marker-end="url(#ah)"/>

<rect x="190" y="94" width="300" height="48" rx="8" fill="#FCF3E3" stroke="#D9A441"/>
<text class="lbl" x="340" y="114" text-anchor="middle" fill="#99701F">Cloudflare Tunnel</text>
<text class="sub" x="340" y="131" text-anchor="middle">enrutamiento por path</text>
<line x1="320" y1="142" x2="195" y2="185" stroke="#94A3B8" stroke-width="2" marker-end="url(#ah)"/>
<line x1="360" y1="142" x2="485" y2="185" stroke="#94A3B8" stroke-width="2" marker-end="url(#ah)"/>

<rect x="40" y="188" width="290" height="176" rx="10" fill="#F5F7F9" stroke="#CBD3DA"/>
<text class="ph" x="185" y="210" text-anchor="middle">Frontend - Microfrontends (Single SPA)</text>
<rect x="58" y="222" width="254" height="42" rx="8" fill="#E8F1FB" stroke="#3B82F6"/>
<text class="lbl" x="185" y="240" text-anchor="middle" fill="#1E5BB0">portfolio-root</text>
<text class="sub" x="185" y="256" text-anchor="middle">contenedor / orquestador</text>
<rect x="58" y="280" width="80" height="28" rx="6" fill="#EAF3FC" stroke="#9CC4F0"/>
<text class="chip" x="98" y="298" text-anchor="middle" fill="#1E5BB0">header</text>
<rect x="146" y="280" width="80" height="28" rx="6" fill="#EAF3FC" stroke="#9CC4F0"/>
<text class="chip" x="186" y="298" text-anchor="middle" fill="#1E5BB0">home</text>
<rect x="234" y="280" width="80" height="28" rx="6" fill="#EAF3FC" stroke="#9CC4F0"/>
<text class="chip" x="274" y="298" text-anchor="middle" fill="#1E5BB0">footer</text>
<rect x="58" y="316" width="80" height="28" rx="6" fill="#EAF3FC" stroke="#9CC4F0"/>
<text class="chip" x="98" y="334" text-anchor="middle" fill="#1E5BB0">admin</text>
<rect x="146" y="316" width="80" height="28" rx="6" fill="#EAF3FC" stroke="#9CC4F0"/>
<text class="chip" x="186" y="334" text-anchor="middle" fill="#1E5BB0">front-auth</text>
<rect x="234" y="316" width="80" height="28" rx="6" fill="#EAF3FC" stroke="#9CC4F0"/>
<text class="chip" x="274" y="334" text-anchor="middle" fill="#1E5BB0">payment</text>

<rect x="350" y="188" width="290" height="176" rx="10" fill="#F5F7F9" stroke="#CBD3DA"/>
<text class="ph" x="495" y="210" text-anchor="middle">Backend - Microservicios (NestJS)</text>
<rect x="368" y="222" width="254" height="42" rx="8" fill="#E4F4F2" stroke="#2BA89A"/>
<text class="lbl" x="495" y="240" text-anchor="middle" fill="#1A7A6E">portfolio-commons</text>
<text class="sub" x="495" y="256" text-anchor="middle">libreria compartida</text>
<rect x="368" y="280" width="60" height="28" rx="6" fill="#E6F4F1" stroke="#93CFC6"/>
<text class="chip" x="398" y="298" text-anchor="middle" fill="#1A7A6E">auth</text>
<rect x="432" y="280" width="60" height="28" rx="6" fill="#E6F4F1" stroke="#93CFC6"/>
<text class="chip" x="462" y="298" text-anchor="middle" fill="#1A7A6E">users</text>
<rect x="496" y="280" width="60" height="28" rx="6" fill="#E6F4F1" stroke="#93CFC6"/>
<text class="chip" x="526" y="298" text-anchor="middle" fill="#1A7A6E">billing</text>
<rect x="560" y="280" width="62" height="28" rx="6" fill="#E6F4F1" stroke="#93CFC6"/>
<text class="chip" x="591" y="298" text-anchor="middle" fill="#1A7A6E">payment</text>
<rect x="368" y="316" width="60" height="28" rx="6" fill="#E6F4F1" stroke="#93CFC6"/>
<text class="chip" x="398" y="334" text-anchor="middle" fill="#1A7A6E">files</text>
<rect x="432" y="316" width="60" height="28" rx="6" fill="#E6F4F1" stroke="#93CFC6"/>
<text class="chip" x="462" y="334" text-anchor="middle" fill="#1A7A6E">email</text>
<rect x="496" y="316" width="60" height="28" rx="6" fill="#E6F4F1" stroke="#93CFC6"/>
<text class="chip" x="526" y="334" text-anchor="middle" fill="#1A7A6E">agents</text>
<rect x="560" y="316" width="62" height="28" rx="6" fill="#E6F4F1" stroke="#93CFC6"/>
<text class="chip" x="591" y="334" text-anchor="middle" fill="#1A7A6E">+12 mas</text>

<rect x="40" y="382" width="290" height="40" rx="8" fill="#E8F5EA" stroke="#4CAF66"/>
<text class="chip" x="185" y="399" text-anchor="middle" fill="#2E7D43">CI/CD - GitHub Actions</text>
<text class="sub" x="185" y="414" text-anchor="middle">repository_dispatch (deploy automatico)</text>

<line x1="470" y1="364" x2="430" y2="381" stroke="#94A3B8" stroke-width="2" marker-end="url(#ah)"/>
<line x1="520" y1="364" x2="560" y2="381" stroke="#94A3B8" stroke-width="2" marker-end="url(#ah)"/>
<rect x="360" y="382" width="130" height="40" rx="8" fill="#F1ECFA" stroke="#8B5CF6"/>
<text class="chip" x="425" y="406" text-anchor="middle" fill="#5B3FA6">PostgreSQL</text>
<rect x="505" y="382" width="135" height="40" rx="8" fill="#F1ECFA" stroke="#8B5CF6"/>
<text class="chip" x="572" y="406" text-anchor="middle" fill="#5B3FA6">Redis</text>
</svg>
